<svg version="1.1" xmlns="http://www.w3.org/2000/svg" xmlns:xlink="http://www.w3.org/1999/xlink" width="16" height="16" viewBox="0,0,256,256"><g fill="#3371f0" fill-rule="nonzero" stroke="none" stroke-width="1" stroke-linecap="butt" stroke-linejoin="miter" stroke-miterlimit="10" stroke-dasharray="" stroke-dashoffset="0" font-family="none" font-weight="none" font-size="none" text-anchor="none" style="mix-blend-mode: normal"><g transform="translate(0,-8) scale(16,16)"><path d="M2.97,1.35c0.19,-0.22214 0.46769,-0.35002 0.76,-0.35h8.54c0.29231,-0.00002 0.57,0.12786 0.76,0.35l2.609,3.044c0.23294,0.27183 0.36099,0.61801 0.361,0.976v0.255c0.00011,1.01474 -0.64449,1.91746 -1.60432,2.24674c-0.95983,0.32928 -2.02284,0.01237 -2.64568,-0.78874c-0.44951,0.57924 -1.1418,0.91782 -1.875,0.917c-0.7332,0.00082 -1.42549,-0.33776 -1.875,-0.917c-0.44951,0.57924 -1.1418,0.91782 -1.875,0.917c-0.7332,0.00082 -1.42549,-0.33776 -1.875,-0.917c-0.62283,0.80111 -1.68584,1.11802 -2.64568,0.78874c-0.95983,-0.32928 -1.60444,-1.232 -1.60432,-2.24674v-0.255c0.00001,-0.35799 0.12806,-0.70417 0.361,-0.976zM4.75,5.625c0,0.75939 0.61561,1.375 1.375,1.375c0.75939,0 1.375,-0.61561 1.375,-1.375c0,-0.27614 0.22386,-0.5 0.5,-0.5c0.27614,0 0.5,0.22386 0.5,0.5c0,0.75939 0.61561,1.375 1.375,1.375c0.75939,0 1.375,-0.61561 1.375,-1.375c0,-0.27614 0.22386,-0.5 0.5,-0.5c0.27614,0 0.5,0.22386 0.5,0.5c0,0.75939 0.61561,1.375 1.375,1.375c0.75939,0 1.375,-0.61561 1.375,-1.375v-0.255c0.00001,-0.11917 -0.04255,-0.23443 -0.12,-0.325l-2.61,-3.045h-8.54l-2.61,3.045c-0.07745,0.09057 -0.12001,0.20583 -0.12,0.325v0.255c0,0.75939 0.61561,1.375 1.375,1.375c0.75939,0 1.375,-0.61561 1.375,-1.375c0,-0.27614 0.22386,-0.5 0.5,-0.5c0.27614,0 0.5,0.22386 0.5,0.5M1.5,8.5c0.27614,0 0.5,0.22386 0.5,0.5v6h1v-5c0,-0.55228 0.44772,-1 1,-1h3c0.55228,0 1,0.44772 1,1v5h6v-6c0,-0.27614 0.22386,-0.5 0.5,-0.5c0.27614,0 0.5,0.22386 0.5,0.5v6h0.5c0.27614,0 0.5,0.22386 0.5,0.5c0,0.27614 -0.22386,0.5 -0.5,0.5h-15c-0.27614,0 -0.5,-0.22386 -0.5,-0.5c0,-0.27614 0.22386,-0.5 0.5,-0.5h0.5v-6c0,-0.27614 0.22386,-0.5 0.5,-0.5M4,15h3v-5h-3zM9,10c0,-0.55228 0.44772,-1 1,-1h2c0.55228,0 1,0.44772 1,1v3c0,0.55228 -0.44772,1 -1,1h-2c-0.55228,0 -1,-0.44772 -1,-1zM12,10h-2v3h2z"></path></g></g></svg>